<svg width="24" height="24" viewBox="0 0 24 24" fill="none" xmlns="http://www.w3.org/2000/svg">
<g clip-path="url(#clip0_163_1252)">
<path d="M1.76798 18.0614C1.97181 19.7032 3.29816 21.0001 4.94362 21.1723C7.22052 21.4102 9.58032 21.6615 11.9986 21.6615C14.4168 21.6615 16.7766 21.4102 19.0535 21.1723C20.6989 21.0001 22.0253 19.7032 22.2291 18.0614C22.4725 16.1012 22.712 14.074 22.712 11.999C22.712 9.92392 22.4725 7.89676 22.2291 5.93656C22.0253 4.29475 20.6989 2.99776 19.0535 2.82575C16.7766 2.58774 14.4168 2.33643 11.9986 2.33643C9.58032 2.33643 7.22051 2.58774 4.94362 2.82575C3.29816 2.99776 1.97181 4.29475 1.76796 5.93656C1.52461 7.89676 1.28516 9.92392 1.28516 11.999C1.28516 14.074 1.52461 16.1012 1.76798 18.0614Z" stroke="#404040" stroke-width="1.71415"/>
<path d="M1.81641 5.49268L9.87653 11.8478C11.1214 12.8294 12.8769 12.8294 14.1218 11.8478L22.1819 5.49268" stroke="#404040" stroke-width="1.71415" stroke-linejoin="round"/>
</g>
<defs>
<clipPath id="clip0_163_1252">
<rect width="23.998" height="23.998" fill="white"/>
</clipPath>
</defs>
</svg>
