<svg width="90" height="31" viewBox="0 0 90 31" fill="none" xmlns="http://www.w3.org/2000/svg">
<path fill-rule="evenodd" clip-rule="evenodd" d="M78.5364 28.9409C79.7503 29.3323 80.9515 29.528 82.1401 29.528C87.0337 29.528 89.4804 27.5836 89.4804 23.6948C89.4804 22.3564 89.1453 21.239 88.4752 20.3426C87.805 19.4461 86.7302 18.7517 85.2508 18.2593L81.9315 23.7893C82.4536 23.9731 82.8645 24.1436 83.1644 24.3008C83.6702 24.5533 83.9231 24.8437 83.9231 25.172C83.9231 25.5129 83.7776 25.778 83.4868 25.9674C83.2086 26.1568 82.6902 26.2515 81.9315 26.2515C80.882 26.2515 79.8514 26.1 78.8399 25.797C77.8409 25.494 77.1265 25.1341 76.6966 24.7175L76.2034 27.7666C76.5448 28.1454 77.3225 28.5368 78.5364 28.9409ZM80.6986 23.3917C77.7524 22.5079 76.2793 20.6772 76.2793 17.8994C76.2793 16.7631 76.6081 15.7909 77.2656 14.9828C77.9231 14.1621 78.764 13.5687 79.7882 13.2025C80.8124 12.8364 81.9568 12.6533 83.2213 12.6533C85.3835 12.6533 86.9768 13.051 88.001 13.8465L88.3424 14.1684L87.5078 16.8767C86.6733 16.056 85.5226 15.6457 84.0558 15.6457C82.8546 15.6457 82.2539 15.9992 82.2539 16.7063C82.2539 16.9083 82.2982 17.0787 82.3867 17.2176C82.4752 17.3439 82.6206 17.4575 82.823 17.5585C83.0379 17.6469 83.2466 17.7227 83.4489 17.7858C83.6512 17.8363 83.9357 17.9121 84.3024 18.0131L80.6986 23.3917Z" fill="#43310B"/>
<path d="M76.2037 25.797C71.1659 29.0521 71.1655 22.9859 75.6112 23.1971C73.2406 25.0045 74.6364 25.8024 76.2037 25.797Z" fill="#43310B"/>
<path d="M13.1956 26.1041C14.0934 26.1041 14.7509 25.8516 15.1682 25.3466C15.5855 24.8415 15.7941 24.2418 15.7941 23.5474V22.2217C15.7941 21.401 15.5286 20.8202 14.9975 20.4793C14.4664 20.1257 13.8658 19.949 13.1956 19.949H11.7162V26.1041H13.1956ZM15.5286 13.3014C15.5286 12.5438 15.3199 12.0198 14.9027 11.7294C14.4854 11.4264 13.8848 11.2749 13.1008 11.2749H11.7162V16.7483H13.2525C13.9859 16.7483 14.5486 16.4642 14.9406 15.896C15.3326 15.3152 15.5286 14.6082 15.5286 13.7749V13.3014ZM14.4854 29.9866C13.4991 29.9866 12.222 29.9614 10.654 29.9109C9.08607 29.8604 7.96069 29.8288 7.27787 29.8162H5.45703V7.61967H8.73834C9.53496 7.61967 10.4454 7.59442 11.4696 7.54391C12.4938 7.48078 13.2336 7.44922 13.6888 7.44922C15.1682 7.44922 16.4137 7.56917 17.4253 7.80906C18.4495 8.04895 19.2524 8.4088 19.8341 8.88858C20.4158 9.36837 20.8267 9.92392 21.067 10.5552C21.3199 11.1865 21.4463 11.9378 21.4463 12.809C21.4463 14.1473 21.1365 15.2963 20.5169 16.2559C19.8973 17.2154 18.9996 17.8152 17.8236 18.0551C20.8078 18.3202 22.2998 20.0689 22.2998 23.3012C22.2998 24.2734 22.1544 25.1572 21.8636 25.9526C21.5728 26.7354 21.1239 27.4362 20.5169 28.0549C19.9226 28.6609 19.1134 29.1344 18.0891 29.4753C17.0649 29.8162 15.8637 29.9866 14.4854 29.9866Z" fill="#43310B"/>
<path d="M1.24854 2C3.91579 7.3266 11.8917 4.36738 12.7807 8.80621C6.47065 9.9899 6.28686 6.43886 2.43385 9.10216C3.32282 6.43886 0.95182 7.3266 1.24854 2Z" fill="#43310B" stroke="#43310B"/>
<path d="M23.5093 2C20.842 7.3266 12.8661 4.36738 11.9771 8.80621C18.2872 9.9899 18.4709 6.43886 22.324 9.10216C21.435 6.43886 23.806 7.3266 23.5093 2Z" fill="#43310B" stroke="#43310B"/>
<path d="M34.7892 27.4162C34.7133 27.5929 34.5552 27.8265 34.315 28.1169C34.0874 28.4073 33.6092 28.9896 33.2298 29.3431C32.9335 29.0472 32.6008 27.6236 32.0444 27.8635C31.488 28.116 30.2425 27.2716 29.6735 27.2716C27.8906 27.2716 26.2964 26.664 26.4135 27.9897C25.6548 26.9291 25.3435 25.9137 25.3435 23.439V16.6967L24.6797 16.0149V13.8369H31.5648V24.6322C31.5521 25.2003 31.6469 25.6233 31.8493 25.9011C32.0516 26.1662 32.4183 26.2988 32.9494 26.2988C33.0252 26.2988 33.0948 26.2988 33.158 26.2988C33.2212 26.2862 33.2844 26.2735 33.3477 26.2609C33.4109 26.2357 33.4615 26.2167 33.4994 26.2041C33.55 26.1915 33.6069 26.1725 33.6701 26.1473C33.7333 26.1094 33.7839 26.0778 33.8218 26.0526C33.8598 26.0273 33.9104 25.9958 33.9736 25.9579C34.0368 25.9074 34.0811 25.8695 34.1063 25.8442C34.1443 25.819 34.1949 25.7811 34.2581 25.7306C34.334 25.6675 34.3909 25.6233 34.4288 25.598V16.6967L33.4046 16.0149V13.8369H40.631V27.6739L37.3789 27.8635L34.7892 27.4162Z" fill="#43310B"/>
<path d="M23.7461 30.2318V26.3848H33.2297V29.344C28.4879 27.2725 25.5243 27.2725 23.7461 30.2318Z" fill="#43310B"/>
<path d="M23.7461 30.2318V26.3848H33.2297V29.344C28.4879 27.2725 25.5243 27.2725 23.7461 30.2318Z" stroke="#43310B"/>
<path d="M42.7129 30.2318V26.3848H33.2293V29.344C37.9711 27.2725 40.9347 27.2725 42.7129 30.2318Z" fill="#43310B"/>
<path d="M42.7129 30.2318V26.3848H33.2293V29.344C37.9711 27.2725 40.9347 27.2725 42.7129 30.2318Z" stroke="#43310B"/>
<path fill-rule="evenodd" clip-rule="evenodd" d="M53.6183 29.6744H47.5293L47.5298 16.9095V13.5762V11.9285C47.5298 10.6533 47.7069 9.54854 48.0609 8.61422C48.415 7.67989 48.9081 6.9539 49.5403 6.43623C50.1852 5.91856 50.8933 5.54609 51.6647 5.31883C52.4486 5.07893 53.3211 4.95898 54.2821 4.95898C55.142 4.95898 55.9512 5.07262 56.7099 5.29989C57.4686 5.52716 57.9428 5.73548 58.1324 5.92488L57.4117 8.80361C56.8048 8.50058 56.1788 8.34907 55.534 8.34907C55.3696 8.34907 55.2178 8.3617 55.0787 8.38695C54.1051 8.53846 53.6183 9.36547 53.6183 10.868V13.5762V16.9095V29.6744Z" fill="#43310B"/>
<path d="M57.2347 15.0205H45.0839L43.8984 18.8675H55.4565L57.2347 15.0205Z" fill="#43310B" stroke="#43310B"/>
<path d="M75.9061 6.73515L77.9807 7.91884L77.388 4.07185L79.7588 3.18408L80.6479 5.25554L77.9807 7.91884L80.6479 7.32699L80.0552 9.69437L74.7207 13.8373L75.9061 6.73515Z" fill="#43310B"/>
<path fill-rule="evenodd" clip-rule="evenodd" d="M68.4366 29.6744H62.3477L62.3482 16.9095V13.5762V11.9285C62.3482 10.6533 62.5252 9.54854 62.8793 8.61422C63.2333 7.67989 63.7265 6.9539 64.3587 6.43623C65.0036 5.91856 65.7117 5.54609 66.483 5.31883C67.267 5.07893 68.1395 4.95898 69.1005 4.95898C69.9603 4.95898 70.7696 5.07262 71.5283 5.29989C72.287 5.52716 72.7611 5.73548 72.9508 5.92488L72.2301 8.80361C71.6231 8.50058 70.9972 8.34907 70.3523 8.34907C70.1879 8.34907 70.0362 8.3617 69.8971 8.38695C68.9235 8.53846 68.4366 9.36547 68.4366 10.868V13.5762V16.9095V29.6744Z" fill="#43310B"/>
<path d="M72.0531 15.0205H59.9022L58.7168 18.8675H70.2749L72.0531 15.0205Z" fill="#43310B" stroke="#43310B"/>
</svg>
