<svg width="15" height="14" viewBox="0 0 15 14" fill="none" xmlns="http://www.w3.org/2000/svg">
<path d="M13.2121 9.68171V11.6759C13.2121 12.1394 13.2121 12.3711 13.1262 12.5481C13.0507 12.7039 12.9302 12.8305 12.7819 12.9098C12.6134 13 12.3928 13 11.9515 13H3.04848C2.60723 13 2.3866 13 2.21807 12.9098C2.06982 12.8305 1.94929 12.7039 1.87375 12.5481C1.78788 12.3711 1.78788 12.1394 1.78788 11.6759V9.68171M10.0606 3.48276V2.32414C10.0606 1.86065 10.0606 1.6289 9.97473 1.45187C9.8992 1.29615 9.77867 1.16954 9.63042 1.0902C9.46188 1 9.24125 1 8.8 1H6.2C5.75875 1 5.53812 1 5.36958 1.0902C5.22133 1.16954 5.1008 1.29615 5.02527 1.45187C4.93939 1.6289 4.93939 1.86065 4.93939 2.32414V3.48276M9.27273 8.44828V10.5172M5.72727 8.44828V10.5172M2.26061 9.68966H12.7394C13.1806 9.68966 13.4013 9.68966 13.5698 9.59945C13.7181 9.52011 13.8386 9.39351 13.9141 9.23779C14 9.06076 14 8.82901 14 8.36552V4.8069C14 4.3434 14 4.11166 13.9141 3.93463C13.8386 3.77891 13.7181 3.6523 13.5698 3.57296C13.4013 3.48276 13.1806 3.48276 12.7394 3.48276H2.26061C1.81935 3.48276 1.59873 3.48276 1.43019 3.57296C1.28194 3.6523 1.16141 3.77891 1.08587 3.93463C1 4.11166 1 4.3434 1 4.8069V8.36552C1 8.82901 1 9.06076 1.08587 9.23779C1.16141 9.39351 1.28194 9.52011 1.43019 9.59945C1.59873 9.68966 1.81935 9.68966 2.26061 9.68966Z" stroke="#404040" stroke-width="1.20741" stroke-linecap="round" stroke-linejoin="round"/>
</svg>
