<svg width="20" height="14" viewBox="0 0 20 14" fill="none" xmlns="http://www.w3.org/2000/svg">
<path fill-rule="evenodd" clip-rule="evenodd" d="M15.0873 0.826023C14.996 0.899425 14.8631 1.14553 14.7921 1.37279C14.6439 1.84693 14.6832 1.83492 13.9829 1.61956C13.6893 1.5293 13.2978 1.45556 13.1129 1.45579C12.9281 1.4559 12.4501 1.37566 12.0508 1.27746C11.3817 1.11291 11.2234 1.11291 10.033 1.27724C8.42499 1.4991 7.86988 1.49954 5.70151 1.28077C3.57599 1.06629 3.44616 1.09748 2.31723 2.09315C1.07869 3.1857 0.756497 3.54225 0.535431 4.06499C0.25695 4.72363 0 6.06052 0 6.85131C0 7.47832 0.0150059 7.51722 0.257603 7.51722C0.47084 7.51722 0.52684 7.44602 0.582624 7.10392C0.619704 6.87666 0.654718 6.54183 0.660481 6.35998C0.668419 6.10737 0.706151 6.1725 0.820218 6.63551C1.03857 7.52262 1.01421 7.82472 0.65537 8.67766C0.345246 9.41467 0.33198 9.51375 0.329153 11.1076C0.326326 12.7037 0.336112 12.7785 0.577839 13.0087C0.794012 13.2145 0.955381 13.2483 1.7196 13.2483C2.20925 13.2483 2.60974 13.2216 2.60974 13.1888C2.60974 13.1561 2.51187 12.9349 2.39226 12.6973C2.23535 12.3855 2.17478 12.0477 2.17478 11.4838C2.17478 10.5951 2.24981 10.4106 3.09895 9.21099C3.42049 8.75691 3.69876 8.33876 3.71746 8.28189C3.73627 8.22491 4.13687 8.38295 4.60771 8.63303C5.68183 9.20361 6.33535 9.27414 7.99558 8.99905C9.34688 8.7752 10.1134 8.77642 10.283 9.00257C10.3468 9.08766 10.4605 9.71819 10.5356 10.4037C10.6944 11.8528 10.8568 12.7829 10.9986 13.0555C11.0824 13.2163 11.2542 13.2483 12.0322 13.2483C13.0743 13.2483 13.0166 13.3288 12.6636 12.3666C12.439 11.7541 12.4925 9.77738 12.7502 9.17043C12.995 8.59412 13.5613 8.13442 14.2992 7.91311C14.658 7.80554 15.2139 7.56968 15.5345 7.38915L16.1174 7.06072L16.8018 7.30561L17.4862 7.55051L17.9674 7.26472C18.2321 7.10745 18.5124 6.90102 18.5902 6.8059C18.6681 6.71079 18.9421 6.53863 19.1991 6.42346C20.1927 5.97797 20.2755 4.84696 19.3708 4.07546C19.0034 3.76212 18.7773 3.3572 18.6032 2.70131C18.3419 1.71688 17.4011 1.5099 16.3468 2.20502C15.7257 2.61446 15.6624 2.55848 15.66 1.59708C15.6587 1.04292 15.6197 0.891159 15.4559 0.802327C15.3148 0.725728 15.2032 0.732892 15.0873 0.826023ZM6.85056 2.0095C7.87945 2.10495 8.40085 2.09183 9.79336 1.93555C11.3831 1.757 11.5252 1.75678 12.1384 1.93114C12.4974 2.0332 12.973 2.11674 13.1953 2.11674C13.7211 2.11674 14.3176 2.37332 14.389 2.63023C14.4201 2.74176 14.4426 3.03537 14.439 3.28247C14.4354 3.53464 14.516 3.86076 14.6226 4.02553C14.727 4.18711 14.7839 4.39464 14.749 4.48678C14.5652 4.97238 15.2431 5.53337 16.0139 5.53337C16.7783 5.53337 17.3765 4.9348 16.8809 4.66599C16.7423 4.59082 16.6195 4.62003 16.4339 4.77234C16.1371 5.01592 15.9904 5.03046 15.6092 4.85434C15.2265 4.67767 15.2622 4.57881 15.74 4.49119C15.9643 4.45008 16.319 4.30415 16.5283 4.16705C17.0019 3.8568 17.5547 3.65973 17.9517 3.65973C18.2642 3.65973 18.5154 3.88843 18.2874 3.96547C18.217 3.98927 18.1594 4.15338 18.1594 4.33017C18.1594 4.63744 18.1809 4.65166 18.6459 4.65166C19.0672 4.65166 19.153 4.69233 19.2853 4.95475C19.4773 5.33565 19.3495 5.72569 19.0068 5.80461C18.8697 5.83613 18.4884 5.87481 18.1594 5.89057C17.6008 5.91725 17.5592 5.93852 17.5279 6.21284C17.5037 6.42434 17.5494 6.51835 17.691 6.54833C17.8638 6.58503 17.8569 6.60719 17.6344 6.73151C17.425 6.84844 17.3116 6.8447 16.9795 6.71002C16.3923 6.47195 15.9753 6.45994 15.5823 6.67001C15.1272 6.91314 15.098 6.90664 15.1788 6.5804C15.2354 6.35171 15.208 6.30487 15.0177 6.30487C14.8917 6.30487 14.7543 6.302 14.7123 6.29837C14.6703 6.29484 14.5727 6.51218 14.4952 6.78143C14.4018 7.10601 14.281 7.29029 14.1365 7.32865C13.9338 7.38232 13.9186 7.33261 13.9186 6.61887C13.9186 5.95825 13.7459 4.87209 13.6409 4.87209C13.622 4.87209 13.4817 4.92025 13.3291 4.979C13.0969 5.06849 13.0667 5.1269 13.1443 5.33719C13.32 5.81342 13.389 6.83434 13.2745 7.26516C13.212 7.50047 13.0089 7.83949 12.8229 8.01847C12.3404 8.48314 12.0928 9.03454 11.9511 9.96033C11.8292 10.7561 11.8624 12.0167 12.0152 12.3942C12.0775 12.5482 12.0373 12.5871 11.8162 12.5871C11.6639 12.5871 11.5134 12.5447 11.4819 12.4931C11.411 12.3769 11.2511 11.2493 11.0889 9.7215C10.924 8.16903 10.9192 8.14996 10.6047 7.80609C10.3968 7.57861 10.3302 7.38706 10.3302 7.01553C10.3302 6.5394 10.3203 6.5253 9.98877 6.5253H9.64733L9.70996 7.13996C9.74432 7.4781 9.84969 7.87398 9.94386 8.0198L10.1152 8.28486L9.65189 8.22336C9.39701 8.18953 8.75393 8.24001 8.22274 8.33556C7.69155 8.43101 6.91972 8.50915 6.50738 8.50915C5.86658 8.50915 5.64758 8.45294 4.99949 8.12208L4.24126 7.73511L4.57628 7.26792C5.00798 6.66593 5.19642 6.20292 5.28493 5.52698L5.35627 4.9823H5.03114C4.72264 4.9823 4.70285 5.01007 4.6424 5.52742C4.56432 6.19565 4.36739 6.59616 3.84523 7.14834C3.21944 7.81006 1.64761 10.2363 1.56878 10.6623C1.52985 10.873 1.51734 11.3947 1.54116 11.8215L1.58444 12.5975L1.2543 12.5647L0.924282 12.532L0.893726 11.1781C0.863605 9.84318 0.868716 9.81033 1.25963 8.83152L1.6562 7.83883L1.42589 6.43812C1.29921 5.66772 1.19569 4.90207 1.1958 4.73652C1.19635 4.24299 1.52398 3.5633 1.88814 3.30066C2.07572 3.16531 2.54721 2.76248 2.93584 2.4055L3.64254 1.75645L4.6213 1.82489C5.15967 1.86258 6.16278 1.94569 6.85056 2.0095ZM17.9381 2.66053C18.0855 2.93971 18.0801 2.99845 17.9074 2.99845C17.5839 2.99845 16.6427 3.34606 16.2676 3.60408C15.5964 4.06576 15.006 3.8903 15.006 3.22935C15.006 2.81715 15.1237 2.72655 15.2709 3.02567C15.4611 3.41241 15.7313 3.38299 16.4442 2.89782C17.1936 2.38775 17.7476 2.2998 17.9381 2.66053Z" fill="#404040"/>
</svg>
