<svg width="14" height="14" viewBox="0 0 14 14" fill="none" xmlns="http://www.w3.org/2000/svg">
<path d="M10.6326 11.6725C10.8199 11.8754 11.1362 11.888 11.3391 11.7007C11.5421 11.5134 11.5547 11.1971 11.3674 10.9942L10.6326 11.6725ZM7 7H6.5C6.5 7.1257 6.54734 7.24678 6.6326 7.33914L7 7ZM7 12.5C3.96243 12.5 1.5 10.0376 1.5 7H0.5C0.5 10.5899 3.41015 13.5 7 13.5V12.5ZM1.5 7C1.5 3.96243 3.96243 1.5 7 1.5V0.5C3.41015 0.5 0.5 3.41015 0.5 7H1.5ZM7 1.5C10.0376 1.5 12.5 3.96243 12.5 7H13.5C13.5 3.41015 10.5899 0.5 7 0.5V1.5ZM12.5 7C12.5 10.0376 10.0376 12.5 7 12.5V13.5C10.5899 13.5 13.5 10.5899 13.5 7H12.5ZM11.3674 10.9942L7.3674 6.66086L6.6326 7.33914L10.6326 11.6725L11.3674 10.9942ZM7.5 7V1H6.5V7H7.5ZM7 7.5H13V6.5H7V7.5Z" fill="#404040"/>
</svg>
